<?xml version="1.0" encoding="UTF-8" standalone="no"?>
<svg
   xmlns:dc="http://purl.org/dc/elements/1.1/"
   xmlns:cc="http://creativecommons.org/ns#"
   xmlns:rdf="http://www.w3.org/1999/02/22-rdf-syntax-ns#"
   xmlns:svg="http://www.w3.org/2000/svg"
   xmlns="http://www.w3.org/2000/svg"
   xmlns:sodipodi="http://sodipodi.sourceforge.net/DTD/sodipodi-0.dtd"
   xmlns:inkscape="http://www.inkscape.org/namespaces/inkscape"
   width="210mm"
   height="297mm"
   viewBox="0 0 210 297"
   version="1.1"
   id="svg8"
   inkscape:version="1.0.2-2 (e86c870879, 2021-01-15)"
   sodipodi:docname="beautician.svg">
  <defs
     id="defs2" />
  <sodipodi:namedview
     id="base"
     pagecolor="#ffffff"
     bordercolor="#666666"
     borderopacity="1.0"
     inkscape:pageopacity="0.0"
     inkscape:pageshadow="2"
     inkscape:zoom="1.979899"
     inkscape:cx="-34.386957"
     inkscape:cy="349.14985"
     inkscape:document-units="mm"
     inkscape:current-layer="layer2"
     inkscape:document-rotation="0"
     showgrid="false"
     inkscape:window-width="3840"
     inkscape:window-height="2066"
     inkscape:window-x="-11"
     inkscape:window-y="-11"
     inkscape:window-maximized="1" />
  <metadata
     id="metadata5">
    <rdf:RDF>
      <cc:Work
         rdf:about="">
        <dc:format>image/svg+xml</dc:format>
        <dc:type
           rdf:resource="http://purl.org/dc/dcmitype/StillImage" />
        <dc:title></dc:title>
      </cc:Work>
    </rdf:RDF>
  </metadata>
  <g
     inkscape:label="Layer 1"
     inkscape:groupmode="layer"
     id="layer1" />
  <g
     inkscape:groupmode="layer"
     id="layer2"
     inkscape:label="Background"
     style="opacity:1">
    <path
       style="fill:#000000;stroke-width:0.352778"
       d="m 28.483098,36.233236 c -0.22681,-0.273289 -0.446594,-1.32106 -0.488408,-2.32838 -0.06711,-1.616793 0.04001,-1.931335 0.913787,-2.683218 0.544396,-0.46845 1.298458,-0.851727 1.675694,-0.851727 0.823711,0 0.861895,-0.227163 0.156717,-0.932341 -0.697968,-0.697968 -0.684719,-3.388002 0.02343,-4.757413 1.285011,-2.484936 5.136016,-2.524416 6.445335,-0.06608 0.619597,1.163337 0.534951,4.671848 -0.118765,4.922702 -0.925406,0.355111 -0.570425,0.762645 0.617361,0.708757 1.133659,-0.05143 1.147797,-0.03222 1.259583,1.711872 0.06218,0.970139 0.01458,2.426453 -0.10577,3.236253 l -0.218825,1.472364 -4.873879,0.03205 c -3.7912,0.02493 -4.965486,-0.07833 -5.286261,-0.464842 z m 4.971729,-1.100825 c -0.207117,-1.349547 -1.314566,-2.477712 -2.31274,-2.356003 -0.914699,0.111531 -1.269406,-0.39143 -0.577588,-0.818997 0.194028,-0.119916 0.352778,-0.367409 0.352778,-0.549986 0,-0.598923 -0.721285,-0.3483 -1.639128,0.569543 -0.766603,0.766603 -0.864989,1.09613 -0.657493,2.202174 0.134204,0.715371 0.322799,1.428161 0.4191,1.583979 0.0963,0.155819 1.153452,0.236403 2.349224,0.179076 1.947297,-0.09336 2.162833,-0.177843 2.065847,-0.809786 z m 2.754117,-0.705555 c 0,-1.906197 -0.417015,-2.026142 -1.212932,-0.348871 -0.652517,1.375077 -0.499409,1.93637 0.528196,1.93637 0.576354,0 0.684736,-0.251274 0.684736,-1.587499 z m 1.940278,1.234722 C 38.269138,35.46755 38.040381,35.3088 37.640875,35.3088 c -0.399506,0 -0.726375,0.15875 -0.726375,0.352778 0,0.194028 0.228755,0.352777 0.508346,0.352777 0.279591,0 0.60646,-0.158749 0.726376,-0.352777 z m 0.176389,-2.822222 c 0,-1.178807 -0.146271,-1.762098 -0.440973,-1.758487 -0.825467,0.01011 -1.146594,0.521867 -1.103449,1.758487 0.06151,1.763108 0.06188,1.763888 0.838866,1.763888 0.611482,0 0.705556,-0.235185 0.705556,-1.763888 z m -3.609563,0.264583 c 0.520689,-1.059143 0.924618,-2.519664 0.750911,-2.71513 -0.07698,-0.08662 -0.789815,-0.169705 -1.584082,-0.184634 -1.429554,-0.02687 -1.44169,-0.01636 -1.202991,1.042005 0.253068,1.12207 1.082324,2.651509 1.437638,2.651509 0.114569,0 0.383904,-0.357188 0.598524,-0.79375 z m 0.686789,-4.684353 c 0.585992,-1.228838 0.581778,-1.25658 -0.329306,-2.167664 l -0.922895,-0.922894 -1.063722,0.844747 c -1.133638,0.900271 -1.170272,1.691926 -0.132956,2.873219 0.868464,0.989007 1.790743,0.752717 2.448879,-0.627408 z m -3.427227,0.768245 c 0,-0.06806 -0.172077,-0.617366 -0.382393,-1.22068 -0.358997,-1.029817 -0.294781,-1.180277 1.049508,-2.459069 l 1.431902,-1.362135 0.680149,0.78224 c 0.374082,0.430232 0.969963,0.944428 1.324181,1.142658 0.567398,0.317532 0.597837,0.533491 0.255806,1.814912 -0.272312,1.020218 -0.275797,1.417017 -0.01167,1.328976 0.643609,-0.214536 0.945525,-2.115853 0.562096,-3.539797 -0.284639,-1.057068 -0.63303,-1.467594 -1.581939,-1.864074 -2.158038,-0.901686 -3.885809,0.08582 -4.26771,2.4392 -0.233313,1.437743 0.08174,3.061516 0.594018,3.061516 0.190331,0 0.346056,-0.05569 0.346056,-0.123747 z m 7.6584,7.311776 c -0.381848,-0.381848 -0.29769,-3.236401 0.102712,-3.483863 0.52864,-0.326717 0.425409,-1.834863 -0.209657,-3.062944 -0.464751,-0.89873 -0.480069,-1.139829 -0.08819,-1.38819 1.382566,-0.876237 2.721834,0.151221 1.839365,1.411123 -0.393956,0.56245 -0.486343,1.169829 -0.318305,2.092624 0.130216,0.715091 0.265451,2.01454 0.300523,2.887665 0.05441,1.354527 -0.04191,1.602627 -0.656305,1.690576 -0.39604,0.05669 -0.832602,-0.0095 -0.970139,-0.146991 z m 1.161045,-1.367196 c 0,-0.485069 -0.15875,-0.881944 -0.352777,-0.881944 -0.194028,0 -0.352778,0.396875 -0.352778,0.881944 0,0.48507 0.15875,0.881944 0.352778,0.881944 0.194027,0 0.352777,-0.396874 0.352777,-0.881944 z"
       id="path1088" />
  </g>
</svg>
